<?xml version="1.0" encoding="utf-8"?>
<!-- Generator: Adobe Illustrator 16.0.3, SVG Export Plug-In . SVG Version: 6.00 Build 0)  -->
<!DOCTYPE svg PUBLIC "-//W3C//DTD SVG 1.1//EN" "http://www.w3.org/Graphics/SVG/1.1/DTD/svg11.dtd">
<svg version="1.1" id="Ñëîé_1" xmlns="http://www.w3.org/2000/svg" xmlns:xlink="http://www.w3.org/1999/xlink" x="0px" y="0px"
	 width="1000px" height="1000px" viewBox="0 0 1000 1000" enable-background="new 0 0 1000 1000" xml:space="preserve">
<g>
	<g>
		<polygon fill="#925B3F" points="0,0 66.667,66.667 0,66.667 		"/>
		<polygon fill="#AA566E" points="66.667,66.667 0,0 66.667,0 		"/>
		<polygon fill="#99697F" points="66.667,0 133.333,66.667 66.667,66.667 		"/>
		<polygon fill="#9D5976" points="133.333,66.667 66.667,0 133.333,0 		"/>
		<polygon fill="#804E65" points="133.333,0 200,66.667 133.333,66.667 		"/>
		<polygon fill="#774857" points="200,66.667 133.333,0 200,0 		"/>
		<polygon fill="#25311A" points="266.667,66.667 200,0 266.667,0 		"/>
		<polygon fill="#34360C" points="266.667,0 333.333,66.667 266.667,66.667 		"/>
		<polygon fill="#515B1E" points="333.333,66.667 266.667,0 333.333,0 		"/>
		<polygon fill="#9E861D" points="333.333,0 400,66.667 333.333,66.667 		"/>
		<polygon fill="#696F16" points="400,66.667 333.333,0 400,0 		"/>
		<polygon fill="#92981D" points="400,0 466.667,66.667 400,66.667 		"/>
		<polygon fill="#5C8C1C" points="466.667,66.667 400,0 466.667,0 		"/>
		<polygon fill="#4B951C" points="466.667,0 533.333,66.667 466.667,66.667 		"/>
		<polygon fill="#156733" points="600,0 666.666,66.667 600,66.667 		"/>
		<polygon fill="#0F8327" points="733.332,66.667 666.666,0 733.332,0 		"/>
		<polygon fill="#CD9C68" points="0,66.667 66.667,133.333 0,133.333 		"/>
		<polygon fill="#C8A686" points="66.667,133.333 0,66.667 66.667,66.667 		"/>
		<polygon fill="#C78075" points="66.667,66.667 133.333,133.333 66.667,133.333 		"/>
		<polygon fill="#A96E66" points="133.333,133.333 66.667,66.667 133.333,66.667 		"/>
		<polygon fill="#5B2B65" points="133.333,66.667 200,133.333 133.333,133.333 		"/>
		<polygon fill="#3C4171" points="200,133.333 133.333,66.667 200,66.667 		"/>
		<polygon fill="#1F744E" points="266.667,66.667 333.333,133.333 266.667,133.333 		"/>
		<polygon fill="#38752C" points="333.333,133.333 266.667,66.667 333.333,66.667 		"/>
		<polygon fill="#6C7C1C" points="333.333,66.667 400,133.333 333.333,133.333 		"/>
		<polygon fill="#768718" points="400,133.333 333.333,66.667 400,66.667 		"/>
		<polygon fill="#3F751D" points="400,66.667 466.667,133.333 400,133.333 		"/>
		<polygon fill="#126523" points="466.667,133.333 400,66.667 466.667,66.667 		"/>
		<polygon fill="#207335" points="533.333,66.667 600,133.333 533.333,133.333 		"/>
		<polygon fill="#095F31" points="600,66.667 666.666,133.333 600,133.333 		"/>
		<polygon fill="#0B6646" points="666.666,133.333 600,66.667 666.666,66.667 		"/>
		<polygon fill="#17AA42" points="800,133.333 733.332,66.667 800,66.667 		"/>
		<polygon fill="#A98A88" points="0,133.333 66.667,200 0,200 		"/>
		<polygon fill="#E4C749" points="66.667,133.333 133.333,200 66.667,200 		"/>
		<polygon fill="#C2A542" points="133.333,200 66.667,133.333 133.333,133.333 		"/>
		<polygon fill="#6E5A60" points="133.333,133.333 200,200 133.333,200 		"/>
		<polygon fill="#3A544E" points="200,200 133.333,133.333 200,133.333 		"/>
		<polygon fill="#204C53" points="200,133.333 266.667,200 200,200 		"/>
		<polygon fill="#147F5C" points="266.667,133.333 333.333,200 266.667,200 		"/>
		<polygon fill="#128456" points="333.333,200 266.667,133.333 333.333,133.333 		"/>
		<polygon fill="#298529" points="333.333,133.333 400,200 333.333,200 		"/>
		<polygon fill="#0F603B" points="400,200 333.333,133.333 400,133.333 		"/>
		<polygon fill="#0F5D57" points="466.667,200 400,133.333 466.667,133.333 		"/>
		<polygon fill="#0D4523" points="533.333,200 466.667,133.333 533.333,133.333 		"/>
		<polygon fill="#0D5237" points="533.333,133.333 600,200 533.333,200 		"/>
		<polygon fill="#0C5041" points="600,200 533.333,133.333 600,133.333 		"/>
		<polygon fill="#0D6551" points="600,133.333 666.666,200 600,200 		"/>
		<polygon fill="#0D6A3D" points="733.332,200 666.666,133.333 733.332,133.333 		"/>
		<polygon fill="#DDE23E" points="133.333,266.666 66.667,200 133.333,200 		"/>
		<polygon fill="#287B59" points="133.333,200 200,266.666 133.333,266.666 		"/>
		<polygon fill="#117B67" points="200,266.666 133.333,200 200,200 		"/>
		<polygon fill="#217D7A" points="200,200 266.667,266.666 200,266.666 		"/>
		<polygon fill="#258876" points="266.667,266.666 200,200 266.667,200 		"/>
		<polygon fill="#158D88" points="266.667,200 333.333,266.666 266.667,266.666 		"/>
		<polygon fill="#13786A" points="333.333,266.666 266.667,200 333.333,200 		"/>
		<polygon fill="#106342" points="333.333,200 400,266.666 333.333,266.666 		"/>
		<polygon fill="#144F17" points="400,266.666 333.333,200 400,200 		"/>
		<polygon fill="#093026" points="400,200 466.667,266.666 400,266.666 		"/>
		<polygon fill="#06221A" points="466.667,266.666 400,200 466.667,200 		"/>
		<polygon fill="#041815" points="466.667,200 533.333,266.666 466.667,266.666 		"/>
		<polygon fill="#030D0A" points="533.333,266.666 466.667,200 533.333,200 		"/>
		<polygon fill="#07251D" points="533.333,200 600,266.666 533.333,266.666 		"/>
		<polygon fill="#093227" points="600,266.666 533.333,200 600,200 		"/>
		<polygon fill="#117375" points="600,200 666.666,266.666 600,266.666 		"/>
		<polygon fill="#108173" points="733.332,266.666 666.666,200 733.332,200 		"/>
		<polygon fill="#8D80AF" points="0,266.666 66.667,333.333 0,333.333 		"/>
		<polygon fill="#A1B49D" points="66.667,333.333 0,266.666 66.667,266.666 		"/>
		<polygon fill="#CCF766" points="66.667,266.666 133.333,333.333 66.667,333.333 		"/>
		<polygon fill="#1FB598" points="133.333,266.666 200,333.333 133.333,333.333 		"/>
		<polygon fill="#1DC4C1" points="200,333.333 133.333,266.666 200,266.666 		"/>
		<polygon fill="#167F72" points="200,266.666 266.667,333.333 200,333.333 		"/>
		<polygon fill="#115F58" points="266.667,333.333 200,266.666 266.667,266.666 		"/>
		<polygon fill="#0E6450" points="266.667,266.666 333.333,333.333 266.667,333.333 		"/>
		<polygon fill="#397A29" points="333.333,333.333 266.667,266.666 333.333,266.666 		"/>
		<polygon fill="#31802D" points="400,333.333 333.333,266.666 400,266.666 		"/>
		<polygon fill="#2D4C1C" points="400,266.666 466.667,333.333 400,333.333 		"/>
		<polygon fill="#4F5828" points="466.667,333.333 400,266.666 466.667,266.666 		"/>
		<polygon fill="#11221B" points="466.667,266.666 533.333,333.333 466.667,333.333 		"/>
		<polygon fill="#0A3326" points="533.333,266.666 600,333.333 533.333,333.333 		"/>
		<polygon fill="#0A3F2A" points="600,333.333 533.333,266.666 600,266.666 		"/>
		<polygon fill="#106B6A" points="666.666,333.333 600,266.666 666.666,266.666 		"/>
		<polygon fill="#62729B" points="0,333.333 66.667,400 0,400 		"/>
		<polygon fill="#6DB07C" points="66.667,400 0,333.333 66.667,333.333 		"/>
		<polygon fill="#B0E83B" points="66.667,333.333 133.333,400 66.667,400 		"/>
		<polygon fill="#72EB67" points="133.333,400 66.667,333.333 133.333,333.333 		"/>
		<polygon fill="#20DDCC" points="133.333,333.333 200,400 133.333,400 		"/>
		<polygon fill="#22E4E3" points="200,400 133.333,333.333 200,333.333 		"/>
		<polygon fill="#1AA7AE" points="200,333.333 266.667,400 200,400 		"/>
		<polygon fill="#179691" points="266.667,400 200,333.333 266.667,333.333 		"/>
		<polygon fill="#307736" points="266.667,333.333 333.333,400 266.667,400 		"/>
		<polygon fill="#44972D" points="333.333,400 266.667,333.333 333.333,333.333 		"/>
		<polygon fill="#316B24" points="333.333,333.333 400,400 333.333,400 		"/>
		<polygon fill="#115B48" points="400,400 333.333,333.333 400,333.333 		"/>
		<polygon fill="#175B4A" points="400,333.333 466.667,400 400,400 		"/>
		<polygon fill="#45B6D2" points="0,400 66.667,466.667 0,466.667 		"/>
		<polygon fill="#3AA7B7" points="66.667,466.667 0,400 66.667,400 		"/>
		<polygon fill="#4DE7A7" points="66.667,400 133.333,466.667 66.667,466.667 		"/>
		<polygon fill="#22CEBA" points="133.333,466.667 66.667,400 133.333,400 		"/>
		<polygon fill="#159D78" points="266.667,466.667 200,400 266.667,400 		"/>
		<polygon fill="#1EC890" points="266.667,400 333.333,466.667 266.667,466.667 		"/>
		<polygon fill="#20CBCC" points="333.333,466.667 266.667,400 333.333,400 		"/>
		<polygon fill="#209FBF" points="400,466.667 333.333,400 400,400 		"/>
		<polygon fill="#1389C1" points="66.667,533.332 0,466.667 66.667,466.667 		"/>
		<polygon fill="#1AB2BF" points="66.667,466.667 133.333,533.332 66.667,533.332 		"/>
		<polygon fill="#1FD0CD" points="133.333,533.332 66.667,466.667 133.333,466.667 		"/>
		<polygon fill="#35CB9C" points="133.333,466.667 200,533.332 133.333,533.332 		"/>
		<polygon fill="#158055" points="200,466.667 266.667,533.332 200,533.332 		"/>
		<polygon fill="#2EBD78" points="266.667,533.332 200,466.667 266.667,466.667 		"/>
		<polygon fill="#1FCDCB" points="266.667,466.667 333.333,533.332 266.667,533.332 		"/>
		<polygon fill="#22D4DD" points="66.667,533.332 133.333,600 66.667,600 		"/>
		<polygon fill="#25CFB1" points="133.333,600 66.667,533.332 133.333,533.332 		"/>
		<polygon fill="#94DD32" points="133.333,533.332 200,600 133.333,600 		"/>
		<polygon fill="#82D72D" points="200,600 133.333,533.332 200,533.332 		"/>
		<polygon fill="#7FC930" points="200,533.332 266.667,600 200,600 		"/>
		<polygon fill="#D2E030" points="266.667,600 200,533.332 266.667,533.332 		"/>
		<polygon fill="#40A372" points="266.667,533.332 333.333,600 266.667,600 		"/>
		<polygon fill="#1D969C" points="333.333,600 266.667,533.332 333.333,533.332 		"/>
		<polygon fill="#158BAB" points="333.333,533.332 400,600 333.333,600 		"/>
		<polygon fill="#127C93" points="400,600 333.333,533.332 400,533.332 		"/>
		<polygon fill="#0D638C" points="400,533.332 466.667,600 400,600 		"/>
		<polygon fill="#0D4F67" points="466.667,533.332 533.333,600 466.667,600 		"/>
		<polygon fill="#169BA9" points="533.333,533.332 600,600 533.333,600 		"/>
		<polygon fill="#1BB8DB" points="0,600 66.667,666.666 0,666.666 		"/>
		<polygon fill="#1ECAE3" points="66.667,666.666 0,600 66.667,600 		"/>
		<polygon fill="#1CC0C8" points="66.667,600 133.333,666.666 66.667,666.666 		"/>
		<polygon fill="#18ABA7" points="133.333,666.666 66.667,600 133.333,600 		"/>
		<polygon fill="#2ABF78" points="133.333,600 200,666.666 133.333,666.666 		"/>
		<polygon fill="#229274" points="200,666.666 133.333,600 200,600 		"/>
		<polygon fill="#B0CD5D" points="200,600 266.667,666.666 200,666.666 		"/>
		<polygon fill="#99D26C" points="266.667,666.666 200,600 266.667,600 		"/>
		<polygon fill="#3EE1C0" points="266.667,600 333.333,666.666 266.667,666.666 		"/>
		<polygon fill="#29D8CE" points="333.333,666.666 266.667,600 333.333,600 		"/>
		<polygon fill="#1493A4" points="333.333,600 400,666.666 333.333,666.666 		"/>
		<polygon fill="#1590AC" points="400,600 466.667,666.666 400,666.666 		"/>
		<polygon fill="#158C9E" points="466.667,666.666 400,600 466.667,600 		"/>
		<polygon fill="#117783" points="600,666.666 533.333,600 600,600 		"/>
		<polygon fill="#20CFE3" points="0,666.666 66.667,733.332 0,733.332 		"/>
		<polygon fill="#20CADA" points="66.667,733.332 0,666.666 66.667,666.666 		"/>
		<polygon fill="#179FB0" points="66.667,666.666 133.333,733.332 66.667,733.332 		"/>
		<polygon fill="#168693" points="133.333,733.332 66.667,666.666 133.333,666.666 		"/>
		<polygon fill="#137165" points="133.333,666.666 200,733.332 133.333,733.332 		"/>
		<polygon fill="#167C65" points="266.667,733.332 200,666.666 266.667,666.666 		"/>
		<polygon fill="#25DBC8" points="266.667,666.666 333.333,733.332 266.667,733.332 		"/>
		<polygon fill="#18A694" points="400,733.332 333.333,666.666 400,666.666 		"/>
		<polygon fill="#1AACB4" points="400,666.666 466.667,733.332 400,733.332 		"/>
		<polygon fill="#0F6475" points="600,733.332 533.333,666.666 600,666.666 		"/>
		<polygon fill="#0E5B68" points="133.333,800 66.667,733.332 133.333,733.332 		"/>
		<polygon fill="#063D25" points="133.333,733.332 200,800 133.333,800 		"/>
		<polygon fill="#073B2F" points="200,800 133.333,733.332 200,733.332 		"/>
		<polygon fill="#1CACB2" points="266.667,733.332 333.333,800 266.667,800 		"/>
		<polygon fill="#12686F" points="333.333,800 266.667,733.332 333.333,733.332 		"/>
		<polygon fill="#116753" points="333.333,733.332 400,800 333.333,800 		"/>
		<polygon fill="#105F6D" points="400,733.332 466.667,800 400,800 		"/>
		<polygon fill="#105C6C" points="466.667,800 400,733.332 466.667,733.332 		"/>
		<polygon fill="#1FC9D7" points="533.333,800 466.667,733.332 533.333,733.332 		"/>
		<polygon fill="#1AA9B7" points="533.333,733.332 600,800 533.333,800 		"/>
		<polygon fill="#0E4964" points="0,800 66.667,866.666 0,866.666 		"/>
		<polygon fill="#13747E" points="133.333,800 200,866.666 133.333,866.666 		"/>
		<polygon fill="#1897A2" points="200,866.666 133.333,800 200,800 		"/>
		<polygon fill="#137477" points="200,800 266.667,866.666 200,866.666 		"/>
		<polygon fill="#106970" points="266.667,866.666 200,800 266.667,800 		"/>
		<polygon fill="#13727E" points="266.667,800 333.333,866.666 266.667,866.666 		"/>
		<polygon fill="#19A0AF" points="333.333,800 400,866.666 333.333,866.666 		"/>
		<polygon fill="#15859A" points="400,866.666 333.333,800 400,800 		"/>
		<polygon fill="#0D4F5B" points="400,800 466.667,866.666 400,866.666 		"/>
		<polygon fill="#0E5767" points="466.667,866.666 400,800 466.667,800 		"/>
		<polygon fill="#158797" points="466.667,800 533.333,866.666 466.667,866.666 		"/>
		<polygon fill="#20CFD8" points="533.333,800 600,866.666 533.333,866.666 		"/>
		<polygon fill="#1FD9E3" points="600,866.666 533.333,800 600,800 		"/>
		<polygon fill="#1AA8BD" points="66.667,866.666 133.333,933.334 66.667,933.334 		"/>
		<polygon fill="#10696F" points="133.333,866.666 200,933.334 133.333,933.334 		"/>
		<polygon fill="#106A71" points="200,933.334 133.333,866.666 200,866.666 		"/>
		<polygon fill="#116D6A" points="266.667,933.334 200,866.666 266.667,866.666 		"/>
		<polygon fill="#052D35" points="466.667,933.334 400,866.666 466.667,866.666 		"/>
		<polygon fill="#0E5B63" points="466.667,866.666 533.333,933.334 466.667,933.334 		"/>
		<polygon fill="#158489" points="533.333,933.334 466.667,866.666 533.333,866.666 		"/>
		<polygon fill="#1ED3DE" points="533.333,866.666 600,933.334 533.333,933.334 		"/>
		<path fill="#168583" d="M133.333,933.334"/>
		<line fill="#168583" x1="200" y1="1000" x2="133.333" y2="1000"/>
	</g>
</g>
</svg>
