<?xml version="1.0" encoding="utf-8"?>
<!-- Generator: Adobe Illustrator 16.0.3, SVG Export Plug-In . SVG Version: 6.00 Build 0)  -->
<!DOCTYPE svg PUBLIC "-//W3C//DTD SVG 1.1//EN" "http://www.w3.org/Graphics/SVG/1.1/DTD/svg11.dtd">
<svg version="1.1" id="Layer_1" xmlns="http://www.w3.org/2000/svg" xmlns:xlink="http://www.w3.org/1999/xlink" x="0px" y="0px"
	 width="512px" height="512px" viewBox="0 0 512 512" enable-background="new 0 0 512 512" xml:space="preserve">
<circle fill="#DF691A" cx="256" cy="256" r="256"/>
<g>
	<path fill="#2B3E50" d="M390.215,177.849c0.55-3.911,0.813-7.89,0.813-11.868c0-49.624-40.372-90.019-90.019-90.019
		c-28.791,0-55.229,13.604-71.976,35.911c-5.912-1.429-11.934-2.154-18.043-2.154c-43.427,0-78.767,35.339-78.767,78.766
		c0,1.1,0.022,2.177,0.066,3.253c-32.548,9.67-56.328,39.867-56.328,75.513c0,43.428,35.339,78.767,78.766,78.767h191.29
		c49.646,0,90.019-40.371,90.019-90.019C436.037,223.188,417.994,193.541,390.215,177.849z M346.019,323.513h-191.29
		c-31.076,0-56.262-25.186-56.262-56.262c0-31.075,25.186-56.261,56.262-56.261c1.714,0,3.34,0.352,5.011,0.506
		c-3.165-7.033-5.011-14.791-5.011-23.011c0-31.076,25.186-56.261,56.262-56.261c10.154,0,19.56,2.901,27.779,7.604
		c10.197-24.308,34.218-41.362,62.24-41.362c37.295,0,67.514,30.219,67.514,67.514c0,8.879-1.824,17.318-4.945,25.099
		c28.726,7.779,49.954,33.757,49.954,64.92C413.532,293.295,383.314,323.513,346.019,323.513z"/>
	<path fill="#2B3E50" d="M165.784,385.16l-12.901,18.418c30.329,21.229,65.976,32.459,103.117,32.459
		c37.141,0,72.788-11.23,103.139-32.459l-12.922-18.418C293.186,422.258,218.859,422.258,165.784,385.16z"/>
	<path fill="#2B3E50" d="M299.801,359.667c-27.758,11.758-59.845,11.758-87.514,0.044l-8.747,20.747
		c16.616,7.011,34.263,10.57,52.46,10.57s35.889-3.583,52.548-10.615L299.801,359.667z"/>
</g>
</svg>
