<?xml version="1.0" encoding="utf-8"?>
<!-- Generator: Adobe Illustrator 16.0.3, SVG Export Plug-In . SVG Version: 6.00 Build 0)  -->
<!DOCTYPE svg PUBLIC "-//W3C//DTD SVG 1.1//EN" "http://www.w3.org/Graphics/SVG/1.1/DTD/svg11.dtd">
<svg version="1.1" id="Layer_1" xmlns="http://www.w3.org/2000/svg" xmlns:xlink="http://www.w3.org/1999/xlink" x="0px" y="0px"
	 width="512px" height="512px" viewBox="0 0 512 512" enable-background="new 0 0 512 512" xml:space="preserve">
<g>
	<path fill="#FFFFFF" d="M446.844,144.875C447.625,139.313,448,133.656,448,128C448,57.438,390.594,0,320,0
		c-40.938,0-78.531,19.345-102.344,51.063C209.25,49.031,200.688,48,192,48C130.25,48,80,98.25,80,160
		c0,1.563,0.031,3.095,0.094,4.625C33.813,178.375,0,221.313,0,272c0,61.75,50.25,112,112,112h272c70.594,0,128-57.405,128-128
		C512,209.344,486.344,167.188,446.844,144.875z M384,352H112c-44.188,0-80-35.813-80-80c0-44.187,35.813-80,80-80
		c2.438,0,4.75,0.5,7.125,0.72c-4.5-10-7.125-21.031-7.125-32.72c0-44.188,35.813-80,80-80c14.438,0,27.813,4.125,39.5,10.813
		C246,56.25,280.156,32,320,32c53.031,0,96,42.97,96,96c0,12.625-2.594,24.625-7.031,35.688C449.813,174.75,480,211.688,480,256
		C480,309.031,437.031,352,384,352z"/>
	<path fill="#FFFFFF" d="M127.719,439.656l-18.344,26.188C152.5,496.031,203.188,512,256,512c52.812,0,103.5-15.969,146.656-46.155
		l-18.375-26.188C308.875,492.406,203.188,492.406,127.719,439.656z"/>
	<path fill="#FFFFFF" d="M318.281,403.406c-39.469,16.719-85.094,16.719-124.438,0.063l-12.438,29.5
		C205.031,442.938,230.125,448,256,448s51.031-5.094,74.719-15.094L318.281,403.406z"/>
</g>
</svg>
